REM DIRINDEX 1\3,1\4,1\5,1\6,1\2\7,1\2\8,1\2\9,1\10
REM DIRNAME folder01,folder02,folder03,folder04,folder05,folder06,folder07,folder08,folder09,folder10
TITLE ""
FILE "2-45 Level 6-917-927.mp3" MP3
  TRACK 01 AUDIO
    TITLE "0:"
    INDEX 01 00:00:00
  TRACK 02 AUDIO
    TITLE "7:cjc056_3153"
    INDEX 01 00:00:07
  TRACK 03 AUDIO
    TITLE "0:"
    INDEX 01 00:01:21
  TRACK 04 AUDIO
    TITLE "8:cjc056_3154"
    INDEX 01 00:01:26
  TRACK 05 AUDIO
    TITLE "0:"
    INDEX 01 00:02:45
  TRACK 06 AUDIO
    TITLE "9:cjc056_3155"
    INDEX 01 00:02:57
  TRACK 07 AUDIO
    TITLE "0:"
    INDEX 01 00:05:56
  TRACK 08 AUDIO
    TITLE "7:cjc056_3156"
    INDEX 01 00:06:30
  TRACK 09 AUDIO
    TITLE "0:"
    INDEX 01 00:07:41
  TRACK 10 AUDIO
    TITLE "8:cjc056_3157"
    INDEX 01 00:07:52
  TRACK 11 AUDIO
    TITLE "0:"
    INDEX 01 00:09:00
  TRACK 12 AUDIO
    TITLE "9:cjc056_3158"
    INDEX 01 00:09:12
  TRACK 13 AUDIO
    TITLE "0:"
    INDEX 01 00:11:44
  TRACK 14 AUDIO
    TITLE "7:cjc056_3159"
    INDEX 01 00:12:18
  TRACK 15 AUDIO
    TITLE "0:"
    INDEX 01 00:13:22
  TRACK 16 AUDIO
    TITLE "8:cjc056_3160"
    INDEX 01 00:13:35
  TRACK 17 AUDIO
    TITLE "0:"
    INDEX 01 00:14:62
  TRACK 18 AUDIO
    TITLE "9:cjc056_3161"
    INDEX 01 00:15:01
  TRACK 19 AUDIO
    TITLE "0:"
    INDEX 01 00:18:19
  TRACK 20 AUDIO
    TITLE "7:cjc056_3162"
    INDEX 01 00:18:70
  TRACK 21 AUDIO
    TITLE "0:"
    INDEX 01 00:19:73
  TRACK 22 AUDIO
    TITLE "8:cjc056_3163"
    INDEX 01 00:20:10
  TRACK 23 AUDIO
    TITLE "0:"
    INDEX 01 00:21:02
  TRACK 24 AUDIO
    TITLE "9:cjc056_3164"
    INDEX 01 00:21:15
  TRACK 25 AUDIO
    TITLE "0:"
    INDEX 01 00:24:12
  TRACK 26 AUDIO
    TITLE "7:cjc056_3165"
    INDEX 01 00:24:63
  TRACK 27 AUDIO
    TITLE "0:"
    INDEX 01 00:25:74
  TRACK 28 AUDIO
    TITLE "8:cjc056_3166"
    INDEX 01 00:26:13
  TRACK 29 AUDIO
    TITLE "0:"
    INDEX 01 00:27:08
  TRACK 30 AUDIO
    TITLE "9:cjc056_3167"
    INDEX 01 00:27:20
  TRACK 31 AUDIO
    TITLE "0:"
    INDEX 01 00:29:56
  TRACK 32 AUDIO
    TITLE "7:cjc056_3168"
    INDEX 01 00:30:30
  TRACK 33 AUDIO
    TITLE "0:"
    INDEX 01 00:31:65
  TRACK 34 AUDIO
    TITLE "8:cjc056_3169"
    INDEX 01 00:32:03
  TRACK 35 AUDIO
    TITLE "0:"
    INDEX 01 00:33:21
  TRACK 36 AUDIO
    TITLE "9:cjc056_3170"
    INDEX 01 00:33:28
  TRACK 37 AUDIO
    TITLE "0:"
    INDEX 01 00:36:27
  TRACK 38 AUDIO
    TITLE "7:cjc056_3171"
    INDEX 01 00:37:03
  TRACK 39 AUDIO
    TITLE "0:"
    INDEX 01 00:38:24
  TRACK 40 AUDIO
    TITLE "8:cjc056_3172"
    INDEX 01 00:38:37
  TRACK 41 AUDIO
    TITLE "0:"
    INDEX 01 00:39:60
  TRACK 42 AUDIO
    TITLE "9:cjc056_3173"
    INDEX 01 00:39:72
  TRACK 43 AUDIO
    TITLE "0:"
    INDEX 01 00:42:63
  TRACK 44 AUDIO
    TITLE "7:cjc056_3174"
    INDEX 01 00:43:40
  TRACK 45 AUDIO
    TITLE "0:"
    INDEX 01 00:44:52
  TRACK 46 AUDIO
    TITLE "8:cjc056_3175"
    INDEX 01 00:44:63
  TRACK 47 AUDIO
    TITLE "0:"
    INDEX 01 00:46:11
  TRACK 48 AUDIO
    TITLE "9:cjc056_3176"
    INDEX 01 00:46:23
  TRACK 49 AUDIO
    TITLE "0:"
    INDEX 01 00:48:63
  TRACK 50 AUDIO
    TITLE "7:cjc056_3177"
    INDEX 01 00:49:37
  TRACK 51 AUDIO
    TITLE "0:"
    INDEX 01 00:50:46
  TRACK 52 AUDIO
    TITLE "8:cjc056_3178"
    INDEX 01 00:50:56
  TRACK 53 AUDIO
    TITLE "0:"
    INDEX 01 00:51:69
  TRACK 54 AUDIO
    TITLE "9:cjc056_3179"
    INDEX 01 00:52:02
  TRACK 55 AUDIO
    TITLE "0:"
    INDEX 01 00:54:15
  TRACK 56 AUDIO
    TITLE "7:cjc056_3180"
    INDEX 01 00:54:66
  TRACK 57 AUDIO
    TITLE "0:"
    INDEX 01 00:55:69
  TRACK 58 AUDIO
    TITLE "8:cjc056_3181"
    INDEX 01 00:56:08
  TRACK 59 AUDIO
    TITLE "0:"
    INDEX 01 00:57:07
  TRACK 60 AUDIO
    TITLE "9:cjc056_3182"
    INDEX 01 00:57:21
  TRACK 61 AUDIO
    TITLE "0:"
    INDEX 01 00:59:16
  TRACK 62 AUDIO
    TITLE "7:cjc056_3183"
    INDEX 01 00:59:67
  TRACK 63 AUDIO
    TITLE "0:"
    INDEX 01 01:01:07
  TRACK 64 AUDIO
    TITLE "8:cjc056_3184"
    INDEX 01 01:01:21
  TRACK 65 AUDIO
    TITLE "0:"
    INDEX 01 01:02:28
  TRACK 66 AUDIO
    TITLE "9:cjc056_3185"
    INDEX 01 01:02:42
  TRACK 67 AUDIO
    TITLE "0:"
    INDEX 01 01:05:11
